<svg xmlns="http://www.w3.org/2000/svg" viewBox="0 0 145.28 201.72"><defs><style>.cls-1{fill:#fff;}.cls-2{fill:#DBB569;}</style></defs><title>Recurso 2</title><g id="Capa_2" data-name="Capa 2"><g id="Capa_1-2" data-name="Capa 1"><path class="cls-1" d="M145.21,88.65c-.63-3-.19-7.29-1.3-8.94s-6.68-3-8.22-3.56-4.9-1.12-5.25-4.8-1.79-6.58.07-9.37,5.92-4.5,4.33-7.12a51.78,51.78,0,0,0-4.49-6.73,33.19,33.19,0,0,0-5.28-4.6c-1.58-1-11-6.17-12.48-7.32s-7.33-3.67-7.55-6.53-1-4.24,1.18-4.57h0c-.35-.27-.69-.52-1-.73-1.08-.68-2.61-.52-3.72-1.35-3.39-2.54-6.45-5.43-9.73-8.07C86.33,10.59,78.86,10,73.28,5.58A22.93,22.93,0,0,1,68.21,0c-2.43,2.28-3.94,5.22-6.57,7.33-1.85,1.49-4.37-2-6.26.48-4.55,6-8,13.6-13.53,18.93-2.11,2-10.16,2.49-12.79,1.52-1.7-.63-4.57-1.74-6.45-1.48s-4.52,1.42-6.67.63l-.09-.05a3.1,3.1,0,0,1-1.23,1.32c-.93.46-1.91-.58-2.73-.78-1.9-.48-4.23-.2-6.23-.2-.47,0-2.29-.27-2.53.2-1.1,2.2,0,7.56,0,10.12,0,.72,0,3.12-.77,3.31A14.51,14.51,0,0,1,0,41.71,30.44,30.44,0,0,1,1.71,45.6c1.06,4.23.39,8.95,1.44,13.14,1.34,5.4,0,13.07,0,18.64,0,14.19-.24,28.25-.24,42.52,0,9.74-.72,19.46-.72,29.14,0,2.58.51,5-.12,7.51.67.56,2,.46,2.17,1.68.84,5.76-.89,15.57-1.5,21.63-.29,2.92-1.05,7.73.5,10.29,3.87,6.39,11.39,5.44,15.9,10.95a2,2,0,0,1,.32.62c1.75-1.13,3.26-2.12,4.08-2.67,2.68-1.8,4.74-5.77,4.32-7.15A15.83,15.83,0,0,0,26.11,187c-1.21-1.94-1.66-3.9-.45-5.38s2.45-3.17,2.49-5.26.06-6.57,1.58-6.5,2.8-2,2.86-4.26a22.7,22.7,0,0,0-.51-6.63c-.59-2.36-3.55-3.26-4.55-5.37s-1.22-2.8-.63-4.65-1.7-2.76-2.07-4.61.8-4.58,3.46-2.76,3.29,5.51,6,5.81,8.6,2.48,14.9,1.56,27.48-4.58,27.48-4.58,20.81-7.08,25.86-8,13.42-3.15,17.73-7.75,7.09-6.57,7.22-9.28,3.92-6.26,3.92-6.26a22.08,22.08,0,0,1,2.28-4.46c1.63-2.52,4.93-7.85,6.53-11s5.61-6,5-9.06"/><path class="cls-2" d="M130,44s-7.48-5.27-15.13.51S111,59.6,111,59.6s1.87,6.29,11.56,13.09a29.42,29.42,0,0,0,11.9-13.6C138.17,49.91,130,44,130,44M122.7,60.11a5.61,5.61,0,1,1,5.61-5.61,5.61,5.61,0,0,1-5.61,5.61"/></g></g></svg>