<?xml version="1.0" encoding="utf-8"?>
<!-- Generator: Adobe Illustrator 24.2.0, SVG Export Plug-In . SVG Version: 6.00 Build 0)  -->
<svg version="1.1" id="Capa_1" xmlns="http://www.w3.org/2000/svg" xmlns:xlink="http://www.w3.org/1999/xlink" x="0px" y="0px"
	 viewBox="0 0 371 49" style="enable-background:new 0 0 371 49;" xml:space="preserve">
<style type="text/css">
	.st0{fill:#1E1E1E;}
	.st1{fill:none;stroke:#DBB569;stroke-miterlimit:10;}
	.st2{fill:url(#SVGID_1_);}
	.st3{fill:#DBB569;}
	.st4{fill:#FFFEF2;}
	.st5{fill:#011227;}
	.st6{fill:#C8BAAF;}
	.st7{fill:url(#SVGID_2_);}
	.st8{fill:none;stroke:#011227;stroke-width:0.5;stroke-linecap:round;stroke-miterlimit:10;}
	.st9{fill:none;stroke:#FFFEF2;stroke-miterlimit:10;}
	.st10{fill-rule:evenodd;clip-rule:evenodd;fill:#FFFEF2;}
	.st11{clip-path:url(#SVGID_4_);}
	.st12{opacity:0.4;clip-path:url(#SVGID_4_);fill:#1E1E1E;}
	.st13{fill:#BCAD93;}
	.st14{fill:none;stroke:#011227;stroke-width:3;stroke-linecap:round;stroke-miterlimit:10;}
	.st15{clip-path:url(#SVGID_6_);}
	.st16{opacity:0.5;clip-path:url(#SVGID_6_);fill:#1E1E1E;}
	.st17{opacity:0.8;}
	.st18{fill:url(#SVGID_11_);}
	.st19{fill:url(#SVGID_12_);}
	.st20{fill:none;stroke:#FFFFFF;stroke-miterlimit:10;}
	.st21{fill:#FFFFFF;}
</style>
<g>
	<polygon class="st0" points="6.32,44.46 42.62,44.46 42.62,37.67 13.11,37.67 13.11,28.1 36.84,28.1 36.84,21.31 13.11,21.31 
		13.11,11.74 42.62,11.74 42.62,4.95 6.32,4.95 	"/>
	<path class="st0" d="M81.59,37c0,0.19-0.06,0.34-0.2,0.47c-0.13,0.13-0.28,0.2-0.47,0.2H56.33c-0.19,0-0.33-0.06-0.47-0.2
		c-0.14-0.14-0.2-0.28-0.2-0.47V4.95h-6.79V37c0,2.06,0.73,3.83,2.18,5.28c1.45,1.45,3.22,2.18,5.28,2.18h24.59
		c2.06,0,3.83-0.73,5.28-2.18c1.45-1.45,2.18-3.22,2.18-5.28V4.95h-6.79V37z"/>
	<path class="st0" d="M127.05,5.01H95v39.45h6.79V30.68c0.26,0.03,0.49,0.04,0.67,0.04l12.76-0.18l11.94,13.92h7.35l0-0.52
		l-0.12-1.11l-10.15-12.1h2.82c2.06,0,3.83-0.74,5.28-2.21c1.44-1.47,2.18-3.23,2.18-5.25v-10.8c0-2.02-0.73-3.78-2.18-5.25
		C130.88,5.75,129.1,5.01,127.05,5.01z M101.79,12.46c0-0.19,0.06-0.34,0.2-0.47c0.14-0.13,0.29-0.2,0.47-0.2h24.59
		c0.18,0,0.33,0.06,0.47,0.2c0.14,0.14,0.2,0.29,0.2,0.47v10.8c0,0.18-0.06,0.33-0.2,0.47c-0.13,0.13-0.28,0.2-0.47,0.2h-24.59
		c-0.19,0-0.34-0.06-0.47-0.2c-0.13-0.13-0.2-0.28-0.2-0.47V12.46z"/>
	<path class="st3" d="M178.19,6.72c-1.45-1.45-3.22-2.18-5.28-2.18h-24.6c-2.04,0-3.82,0.73-5.26,2.18
		c-1.45,1.45-2.18,3.22-2.18,5.28v24.99c0,2.06,0.73,3.83,2.18,5.28c1.43,1.45,3.21,2.18,5.26,2.18h24.6c2.06,0,3.83-0.73,5.28-2.18
		c1.45-1.45,2.18-3.22,2.18-5.28V12C180.37,9.95,179.64,8.17,178.19,6.72z M172.13,33.19c0,0.22-0.25,0.33-0.41,0.19l-11.11-11.04
		l-7.46,7.41l-4.07,4.03v-5.2c0.37-3.91,2.94-6.15,2.94-6.15l8.27-8.22c0.08-0.09,0.2-0.12,0.31-0.12c0.11,0,0.22,0.03,0.31,0.12
		l8.26,8.22c0,0,2.59,2.24,2.94,6.15V33.19z"/>
	<path class="st0" d="M189.23,7.13c-1.45,1.45-2.18,3.23-2.18,5.28V37c0,2.05,0.73,3.83,2.18,5.28c1.45,1.45,3.22,2.18,5.28,2.18
		h31.94v-6.79h-31.94c-0.18,0-0.33-0.06-0.47-0.2c-0.13-0.13-0.2-0.28-0.2-0.47V12.41c0-0.19,0.06-0.34,0.19-0.47
		c0.14-0.13,0.29-0.2,0.47-0.2h31.94V4.95h-31.94C192.45,4.95,190.68,5.69,189.23,7.13z"/>
	<path class="st0" d="M264.96,4.95h-24.59c-2.05,0-3.83,0.73-5.28,2.18c-1.45,1.45-2.18,3.22-2.18,5.28v32.05h6.79V30.99h25.93
		v13.47h6.79V12.41c0-2.05-0.73-3.83-2.18-5.28C268.79,5.69,267.01,4.95,264.96,4.95z M239.9,11.94c0.13-0.13,0.28-0.2,0.47-0.2
		h24.59c0.19,0,0.34,0.06,0.47,0.2c0.14,0.14,0.2,0.29,0.2,0.47V24.2H239.7V12.41C239.7,12.23,239.76,12.08,239.9,11.94z"/>
	<path class="st0" d="M311.09,4.95H286.5c-2.06,0-3.83,0.73-5.28,2.18c-1.45,1.45-2.18,3.22-2.18,5.28v8.23
		c0,2.06,0.73,3.83,2.18,5.28c1.44,1.45,3.22,2.18,5.28,2.18h24.59c0.18,0,0.33,0.06,0.47,0.2c0.14,0.14,0.2,0.29,0.2,0.47V37
		c0,0.19-0.06,0.33-0.2,0.47c-0.13,0.13-0.28,0.2-0.47,0.2H286.5c-0.19,0-0.34-0.06-0.47-0.2c-0.14-0.14-0.2-0.28-0.2-0.47v-2.75
		h-6.79V37c0,2.06,0.73,3.83,2.18,5.28c1.44,1.45,3.22,2.18,5.28,2.18h24.59c2.06,0,3.83-0.73,5.28-2.18
		c1.45-1.45,2.18-3.22,2.18-5.28v-8.23c0-2.06-0.73-3.83-2.18-5.28c-1.45-1.45-3.22-2.18-5.28-2.18H286.5
		c-0.19,0-0.34-0.06-0.47-0.19c-0.14-0.14-0.2-0.29-0.2-0.47v-8.23c0-0.19,0.06-0.34,0.2-0.47c0.13-0.13,0.28-0.2,0.47-0.2h24.59
		c0.18,0,0.33,0.06,0.47,0.2c0.13,0.13,0.2,0.28,0.2,0.47v2.75h6.79v-2.75c0-2.05-0.73-3.83-2.18-5.28
		C314.92,5.69,313.14,4.95,311.09,4.95z"/>
	<path class="st0" d="M362.5,7.13c-1.45-1.45-3.22-2.18-5.28-2.18h-24.59c-2.06,0-3.83,0.73-5.28,2.18
		c-1.45,1.45-2.18,3.22-2.18,5.28v32.05h6.79V30.99h25.93v13.47h6.79V12.41C364.68,10.36,363.95,8.58,362.5,7.13z M332.16,11.94
		c0.14-0.14,0.29-0.2,0.47-0.2h24.59c0.19,0,0.34,0.06,0.47,0.2c0.13,0.13,0.2,0.28,0.2,0.47V24.2h-25.93V12.41
		C331.96,12.23,332.03,12.08,332.16,11.94z"/>
</g>
</svg>
